<?xml version="1.0" encoding="UTF-8"?>
<svg id="Layer_1" xmlns="http://www.w3.org/2000/svg" version="1.1" viewBox="0 0 1000 1000">
  <!-- Generator: Adobe Illustrator 30.1.0, SVG Export Plug-In . SVG Version: 2.1.1 Build 136)  -->
  <defs>
    <style>
      .st0 {
        fill: #a37f40;
      }
    </style>
  </defs>
  <g>
    <path class="st0" d="M345.13,730.97c-.26,1.05-.57,2.08-.77,3.14-1.34,7.31-5.05,13.4-9.68,19.05-5.92,7.22-12.21,14.08-19.71,19.68-4.5,3.36-9.29,6.32-13.87,9.57-5.43,3.84-11.38,6.67-17.47,9.27-4.86,2.07-9.83,3.76-15.06,4.5-5.62.8-10.93-.82-16.11-2.73-2.32-.86-4.06-2.57-5.47-4.7-3.29-5-5.02-10.4-5.2-16.4-.17-5.61-.36-11.24.85-16.71,1.15-5.21,2.88-10.29,4.44-15.4.81-2.67,1.59-5.38,2.75-7.91,4.36-9.52,9.97-18.25,17.45-25.63,8.28-8.17,16.88-15.97,26.36-22.79,11.12-8,22.4-15.82,32.71-24.92,1.59-1.41,2.36-2.48,1.5-4.63-2.14-5.33-4.3-10.67-6.01-16.15-1.56-5.01-4.66-9.13-6.98-13.69-1.71-3.37-3.76-6.56-5.67-9.83,3.54-8.94,6.14-18.16,8.3-27.52.11-.48.12-.98.28-1.44.71-2,2.09-2.24,3.54-.61.4.45.7,1,.98,1.54,2.63,5.1,5.56,10.09,7.81,15.36,3.25,7.63,6.06,15.45,8.92,23.25,1.63,4.45,3.51,8.84,4.1,13.64.14,1.11.94,2.13,1.58,3.49,1.04-.7,1.81-1.05,2.36-1.61,1.97-2.01,3.8-4.16,5.81-6.13,2.88-2.82,6.02-5.38,8.75-8.32,2.65-2.85,5.19-5.88,7.29-9.15,3.36-5.23,6.54-10.61,9.37-16.14,4.06-7.95,8.04-15.96,11.49-24.18,4.43-10.6,8.24-21.47,10.63-32.74,1.19-5.59,1.83-11.3,2.76-17.18-3.56-.95-6.83-1.79-10.09-2.7-2.93-.82-5.66-2.12-8.43-3.56-9.77-5.08-17.08-14.08-20.01-19.54-3.83-7.14-7.01-14.51-8.92-22.44-1.49-6.17-3.71-12.14-4.42-18.52-.73-6.54-1.92-13.04-2.68-19.58-.85-7.28-1.48-14.59-2.14-21.89-.59-6.57-.96-13.16-1.64-19.73-.95-9.23-1.98-18.46-3.2-27.67-1.44-10.9-3.13-21.76-4.65-32.65-.3-2.15-.32-4.34-.5-6.9-1.99,0-3.8-.07-5.6.01-9.89.46-19.78.93-29.66,1.46-6.34.34-12.67.85-19.02,1.14-2.18.1-4.37-.31-6.56-.41-7.57-.34-15.18-.34-22.72-1.06-9.12-.87-18.26-1.91-27.23-3.7-6.91-1.38-13.57-3.87-19.75-7.63-7.69-4.68-12.51-15.52-8.49-25.27,2.51-6.1,4.44-12.45,7.16-18.44,2.92-6.44,6-12.88,11.46-17.78,5.31-4.76,10.99-8.85,17.53-11.85,4.56-2.09,9.07-4.23,13.92-5.59,4.93-1.39,9.81-2.99,14.77-4.27,14.53-3.76,28.41-9.09,41.38-16.68,4.75-2.78,9.41-5.73,14.08-8.64,1.14-.71,2.25-1.43,1.78-3.2-2.35-8.71-3.9-17.69-8.78-25.53-2.45-3.95-5.56-7.05-10.11-8.64-2.24-.78-4.2-.65-5.81.88-2.1,2.01-4.14,4.16-5.82,6.52-1.91,2.68-3.39,5.67-5.05,8.53-.24.42-.42.88-.65,1.36-2.07-1.49-1.55-3-1.27-4.34,1.83-8.67,5.18-16.79,9.2-24.63,2.93-5.71,6.83-10.59,11.77-14.81,3.72-3.17,7.46-2.86,11.2-1.17,6.23,2.83,9.12,8.43,10.91,14.71.29,1.02.71,2.02,1.12,3,.8,1.9,1.82,3.73,2.45,5.69,1.69,5.23,3.3,10.48,4.76,15.77.58,2.1.69,4.33,1,6.5.18,1.28.32,2.57.56,4.48,2.3-2.08,4.17-3.59,5.84-5.3,5.06-5.15,10.25-10.2,15.01-15.62,9.2-10.49,15.84-22.55,21.39-35.33,3.06-7.06,6.75-13.86,12.71-19.11,3.1-2.74,5.86-2.85,9.12-.47,4.42,3.22,6.47,7.9,8.24,12.73,1.69,4.59,3.21,9.25,4.47,13.98,1.25,4.71,2.17,9.51,3.08,14.29.91,4.79,1.87,9.58,1.58,14.52-.21,3.52-.06,7.08-.48,10.57-.71,5.81-1.69,11.59-2.7,17.36-.24,1.37-1.01,2.65-1.49,3.85-2.57-.04-3.01-1.88-3.36-3.26-.83-3.31-1.89-6.73-1.77-10.07.4-10.93-3.09-20.96-6.44-31.04-.85-2.54-1.8-5.13-3.19-7.4-1.38-2.25-3.18-4.34-5.14-6.12-2.06-1.88-5.31-1.72-7.35.4-2.27,2.36-4.51,4.9-6.05,7.76-3.36,6.24-6,12.87-9.42,19.07-4.19,7.6-8.72,15.02-13.41,22.32-1.9,2.95-4.58,5.41-6.96,8.04-2.47,2.72-4.93,5.45-7.55,8.02-1.32,1.3-1.49,2.66-1.23,4.31.81,5.19,1.62,10.37,2.31,15.58.42,3.15.53,6.33.95,9.48,1.22,9.07,4.41,37.69,4.74,42.93.19,2.93.39,5.87.71,8.79.13,1.18.33,2.47.33,3.68,5.43-.16,11.23-.43,16.46-.6,8.31-.28,16.63-.55,24.94-.89,8.67-.36,17.34-.8,26.01-1.18,3.18-.14,6.37-.16,9.55-.26,8.44-.25,16.88-.47,25.31-.77,10.88-.39,21.75-.88,32.63-1.29,8.56-.33,17.12-.57,25.67-.92,3.39-.14,6.78-.43,10.71-.69-.46-4.68-.87-9.13-1.33-13.58-.67-6.44-1.11-12.91-2.12-19.29-1.63-10.37-10.63-110.85-11.26-119.74-.23-3.17-.71-15.41-2.3-18-1.03-1.67-.67-3.14.17-4.81,3.19-6.34,6.25-12.74,9.35-19.12.59-1.21,1.11-2.88,2.73-2.43,1.1.31,2.16,1.49,2.81,2.55,3.47,5.71,4.36,12.4,6.88,18.48,1.62,3.9,15.97,49.54,16.53,51.78.53,2.12,2.13,6.46,2.81,8.54,1.14,3.51,2.43,6.5-.14,9.87-6.37-4.23-9.14-11.42-13.61-17.2-2.46,1.28-3.03,3.3-2.85,5.63.32,4.14,1.88,30.47,2.25,35.82.25,3.65,9.01,75.09,9.65,80.98,18.81-.7,37.44-1.39,56.4-2.09,0-1.32.11-2.27-.02-3.19-1.81-13.68-15.04-137.59-20.51-148.42-.16-.94-.5-1.87-.88-2.76-1.47-3.45-1.27-6.69.21-10.23,2.02-4.81,3.41-9.89,5.06-14.86q1.32-3.97,4.6-7.43c.61,1.45,1.02,2.81,1.72,3.98,3.21,5.38,3.96,11.5,5.37,17.42.79,3.32,1.49,6.67,2.23,10.01.24,1.07.74,2.14.73,3.21-.05,4.36,1.49,8.37,2.43,12.53.99,4.39,1.4,8.92,2.12,13.38,1.2,7.47,2.46,14.93,3.65,22.41.61,3.86,1.19,7.74,1.65,11.62,1.18,9.83,2.65,19.65,3.32,29.52.74,11,2.86,21.81,3.87,32.76.76,8.28,1.51,16.56,2.28,24.83.12,1.32.29,2.63.49,4.37,1.81,0,3.37.04,4.92,0,10.27-.32,20.55-.63,30.82-.98,6.23-.21,12.46-.49,18.7-.72,13.57-.5,27.13-.98,40.7-1.49,5.99-.22,11.98-.47,17.96-.73,10.5-.45,21-.93,31.51-1.35,7.95-.32,15.9-.51,23.84-.87,7.08-.32,14.15-.78,21.22-1.18.98-.06,1.95-.17,2.93-.19,9.54-.2,19.09-.4,28.63-.55.89-.01,1.79.26,3.24.49-.89.7-1.21,1.11-1.62,1.26-8.73,3.18-17.42,6.52-26.24,9.42-8.59,2.83-17.3,5.28-25.99,7.77-5.62,1.61-11.28,3.16-16.98,4.46-5.23,1.18-10.54,1.99-15.82,2.95-.6.11-1.27,0-1.81.23-6.09,2.48-12.54,1.74-18.86,2.08-8.66.45-17.33.89-26,1.3-6.96.33-13.93.58-20.89.92-8.3.41-16.59.9-24.89,1.31-6.84.33-13.68.56-20.52.9-7.19.36-14.37.79-21.87,1.21.07.81.08,1.36.18,1.9,2.17,11.66,2.69,23.53,4.42,35.25.95,6.4,1.77,12.83,2.66,19.24.08.61.31,1.21.28,1.81-.51,9.86,2.92,19.26,3.28,29.06.33,8.97,1.39,17.98,2.93,26.82,1.12,6.45,3.3,12.76,6.56,18.56,1.55,2.77,3.31,5.42,5.07,8.07,4.15,6.23,9.44,11.24,16.15,14.63,3.71,1.87,7.48,3.63,11.25,5.36.94.43,2.01.59,3.66,1.05-1.59-4.66-2.85-8.83-4.43-12.88-2.76-7.06-5.96-13.96-8.48-21.1-1.61-4.57-2.26-9.47-3.49-14.19-1.52-5.79-.9-11.66-.91-17.51-.01-7.4,1.02-14.65,3.6-21.61.58-1.56,1.55-3.01,2.48-4.41,1.02-1.52,2.39-2.82,3.29-4.4,4.44-7.7,11.7-11.73,19.55-14.72,11.16-4.25,22.84-5.19,34.66-3.98,9.36.96,18.7,2.11,28.02,3.41,3.73.52,7.44,1.43,11.04,2.56,9.12,2.86,18.59,3.96,27.91,5.85,7.42,1.5,14.88,2.81,22.34,4.16,7.09,1.29,14.18,2.58,21.28,3.77,2.29.38,4.63.4,6.94.69,8.48,1.07,16.96,2.24,25.45,3.26,3.03.37,6.09.49,9.15.6,1.2.04,2.41-.29,3.61-.44,3.47-.45,5.44,1.56,4.86,4.97-.02.12-.05.24-.08.36-1.59,6.14-3.08,12.31-4.84,18.39-.68,2.33-1.76,4.77-4.92,4.65-5.58-.2-10.4,2.55-15.52,4.04-7.92,2.3-14.85,6.86-22.29,10.23-10.37,4.7-19.15,11.76-28.68,17.7-14.74,9.19-29.03,19.06-43.95,28.01-15.23,9.15-30.92,17.39-46.49,25.88-3.7,2.02-7.97,3.01-12,4.41-1.03.36-2.15.45-3.19.78-2.88.92-2.74.95-3.05,4.07-.85,8.61-.58,17.37-3.63,25.7-1.23,3.35-3.15,6.17-5.37,8.99.99-12.12-.55-23.81-3.74-35.49-2.94-.3-5.72-.57-8.5-.86-5.2-.55-9.88-2.7-14.55-4.83-2-.91-3.95-1.95-5.87-3.01-8.74-4.85-15.76-11.54-20.99-20.03-3.79-6.14-7.31-12.45-9.52-19.38-.96-3.02-1.97-6.02-3.03-9-.17-.48-.69-.83-1.35-1.58-.29.97-.54,1.5-.59,2.05-.34,3.77-.76,7.54-.9,11.31-.2,5.48-2.66,10.11-5.28,14.65-4.85,8.38-11.92,14.23-21.1,17.3-4.6,1.54-9.34,2.51-14.24,3.15-10.31,1.36-18.5-3.03-26.59-8.21-1.44-.92-2.75-2.02-4.15-3.01-5.13-3.62-7.72-9.04-10.31-14.46-.2-.42-.43-.83-.76-1.45-3.56,1.62-5.3,4.66-7.06,7.69-2.45,4.22-4.63,8.66-7.51,12.57-3.47,4.71-7.16,9.29-11.82,12.99-10.8,8.57-23.03,12.26-36.67,10.5-4.81-.62-9.49-2.27-13.77-4.83-3.13-1.87-6.42-3.47-9.66-5.21-12.55,8.11-25.1,16.19-40.61,18.63-.08,1.74-.06,3.41-.24,5.07-.63,6.08-1.21,12.18-2.03,18.24-.42,3.13-1.41,6.19-1.95,9.31-.64,3.72-1.21,7.47-1.55,11.23-.67,7.33-6.84,28.36-8.27,31.72-3.88,9.14-12.89,28.57-26.49,46.47-.99,1.09-1.86,2.28-2.88,3.34-1.76,1.84-3.61,3.6-5.37,5.44-2.95,3.1-5.92,6.2-8.72,9.43-.5.58-.46,1.85-.31,2.74.99,5.9,2.07,11.78,3.15,17.67.28,1.56,4.69,20.59,6.06,28.67,1.06,6.25,8.97,43.48,10.35,46.87,1.8,4.44,3.85,8.87,7.33,12.2,4.5,4.31,9.24,8.52,15.16,10.78,4.65,1.77,9.05,4.35,14.26,4.54,10.79.41,20.86-1.86,30.23-7.33,14.69-8.58,24.64-20.94,30-37.06,2.67-8.03,5.72-15.9,10.46-22.99.85-1.27,1.4-3.06,3.52-2.56,1.51.36,2.4,2.05,2.09,4.61-.42,3.52-1.15,6.99-1.66,10.5-.15,1.07-.22,2.23.03,3.26,3.54,14.69,11.85,25.09,26.87,29.12,5.4,1.45,11,1.13,16.32-.3,9.2-2.48,18.36-5.24,26.43-10.57,7.18-5.16,11.72-10.25,12.18-18.19-.24-4.27-1.72-23.25-2.14-28.47-.76-9.38-1.55-18.76-2.5-28.12-1.23-12.28-2.72-24.54-3.92-36.83-.94-9.61-1.53-19.25-2.41-28.86-.35-3.76-1.21-7.47-1.6-11.23-.49-4.73-.76-9.48-1.09-14.23-.14-2.07.08-4.21-.32-6.22-1.77-8.9-1.32-18.08-3.06-26.91-1.72-8.77-.98-17.86-3.83-26.43-.08-.23-.12-.48-.14-.72-.59-7.43-1.16-14.86-1.76-22.28-.12-1.43-.33-2.86-.54-4.64,1.03.4,1.85.57,2.52.99,5.49,3.45,10.93,7,16.46,10.38,1.46.89,1.92,2.06,2.11,3.58.96,7.75,2.6,15.48,2.76,23.24.15,7.42,14.08,131.56,14.42,136.92.58,9.27,1.21,18.55,1.36,27.83.09,5.47-.64,10.97-1.1,16.44-.19,2.31-.87,4.59-.91,6.9-.72,12.93-8.95,33.69-10.75,38.34-1.58,4.08-3.56,7.69-6.15,11.06-6.26,8.14-15.05,12.63-24.15,16.68-2,.89-3.87,2.16-5.93,2.82-6.89,2.2-14.03,3.23-21.22,2.89-5.85-.28-11.16-2.95-15.84-6.23-3.76-2.63-7.02-6.09-10.09-9.54-1.82-2.05-2.97-4.74-4.23-7.23-1.21-2.39-2.41-4.83-3.21-7.38-1.15-3.66-1.93-7.45-2.95-11.49-.54,1.09-1.28,2.16-1.62,3.35-2.16,7.53-4.71,14.93-7.99,22.04-2.24,4.87-4.52,9.76-8.4,13.69-1.97,1.99-3.48,4.42-5.37,6.49-8.69,9.51-19.46,15.52-31.98,18.28-14.24,3.14-26.83-.79-38.16-9.52-.19-.15-.36-.34-.57-.47-9.06-5.54-13.9-14.38-17.68-23.72-2.55-6.3-5.22-12.62-6.44-19.46-.94-5.27-8.25-37.41-8.97-40.06-.22.04-.43.07-.65.11ZM539.6,442.74c.38.98.67,1.51.8,2.08.79,3.43,1.35,6.93,2.38,10.28.84,2.74,1.61,5.96,3.53,7.81,3.01,2.9,5.9,6.16,10.13,7.72,5.66,2.07,11.42,2.87,17.4,2.84,5.34-.03,10.74.53,15.34-3.1.45-.35,1.17-.33,1.73-.56,8.31-3.42,15.61-8.17,20.55-15.92.63-.98,1.2-2.23,1.19-3.35-.06-6.61-.15-13.22-.51-19.81-.38-6.95-1.03-13.89-1.62-20.83-.58-6.81-1.07-13.64-1.91-20.43-1.48-11.87-3.27-23.7-4.79-35.57-1.13-8.84-2.02-17.71-3.03-26.57-.3-2.63-.68-5.25-1.01-7.8-6.27-.67-52.26,1.84-55.45,3.01,1.21,15.85,2.33,31.74,3.66,47.61,1.35,16.02,2.91,32.03,4.36,47.87-5.96,4.53-12.41,7.59-18.87,11.16-.21-.93-.36-1.37-.4-1.83-.5-6.09-.95-12.18-1.47-18.27-.45-5.22-.85-10.44-1.49-15.64-.55-4.46-1.6-8.87-2.07-13.33-1.06-10.08-1.9-20.19-2.82-30.29-.74-8.03-1.5-16.05-2.21-24.08-.16-1.82-1.31-2.56-2.85-2.73-1.43-.16-2.9-.09-4.35,0-6.58.37-13.16.83-19.75,1.16-6.96.35-13.93.56-20.89.89-8.3.4-16.59.9-24.88,1.32-10.13.51-20.26.98-30.39,1.46-10.38.5-20.75,1.03-31.13,1.47-8.92.38-17.84.63-26.76,1.02-3.14.14-6.27.52-9.54.8.55,4.1,1.06,7.96,1.57,11.82.37,2.79.77,5.57,1.07,8.37.55,5.09,5.93,69.35,6.07,72.14.46,9.16,1.09,18.27,3.05,27.29,1.71,7.88,3.67,15.51,8.41,22.3,3.23,4.63,6.35,9.08,11.05,12.49,9.65,7.02,20.11,10.32,32,8.51,4.71-.72,9.27-1.99,13.88-4.57-1.06-.95-1.9-1.6-2.61-2.37-1.15-1.24-2.58-2.4-3.24-3.88-1.79-4.01-3.43-8.12-4.76-12.3-.73-2.29-.93-4.81-.97-7.23-.06-3.91.16-7.82.37-11.73.09-1.69.28-3.42.73-5.05,2.38-8.5,5.5-16.56,10.55-24.04,4.35-6.45,8.86-12.58,14.62-17.8,4.3-3.89,8.98-7.05,14.72-8.56,3.81-1.01,7.79-1.01,11.08.36,3.34,1.4,6.26,4.3,8.75,7.09,3.47,3.88,5.04,8.88,6.4,13.85,1.41,5.18,2.98,10.33,2.63,15.83-.2,3.14.09,6.32-.19,9.45-.36,3.89-.89,7.78-1.7,11.6-.89,4.16-1.72,8.45-3.45,12.29-2.25,4.99-5.37,9.59-8.11,14.36-.77,1.34-1.51,2.69-2.45,4.37,8.28,2.01,16.03,1.77,23.65-.31,13.39-3.67,23.24-12.16,30.75-23.58,3.56-5.41,6.94-10.95,10.48-16.37.62-.95,1.66-1.64,2.75-2.68ZM690.85,480.76c7.92-1.43,15.42-2.76,22.38-5.72,8.21-3.49,16.31-7.31,24.15-11.56,13.65-7.39,27.12-15.11,40.53-22.92,6.86-4,13.42-8.52,20.15-12.75,7.46-4.68,14.97-9.29,22.47-13.91,1.57-.97,3.11-1.91,3.58-4.13-3.04-.51-6-1.06-8.98-1.51-13.26-1.99-26.53-3.96-39.79-5.93-6.19-.92-12.38-1.96-18.52-3.11-11.65-2.17-23.16-5.1-35.03-5.9-11.09-.75-22.17-1.6-33.12,1.51-8.34,2.37-16.22,5.38-22.37,11.87-2.19,2.32-2.75,4.55-1.51,7.61,4.65,11.43,9.04,22.98,13.67,34.42,1.32,3.27,3.39,6.26,4.61,9.56,2.25,6.07,4.11,12.28,6.17,18.42.42,1.25.97,2.45,1.61,4.05ZM325.31,234.71c-1.17-.72-1.75.52-2.53,1.18-2.14,1.82-4.09,3.93-6.44,5.43-6.79,4.35-13.64,8.63-20.65,12.6-7.01,3.97-14.15,7.78-21.91,10.17-11.08,3.41-22.12,6.92-33.25,10.15-9.27,2.7-17.49,7.42-25.53,12.54-.44.28-.66.92-1.22,1.73,1.74,1.22,3.17,2.66,4.89,3.36,5.76,2.32,11.49,5.02,17.49,6.4,10.83,2.49,21.87,4,33.03,4.17,1.71.03,3.42-.11,5.13-.03,7.44.35,14.88,1,22.32,1.08,8.92.1,17.85-.12,26.76-.52,3.45-.16,6.9-.12,10.67-.46.09-.54-.03-1.4-.07-1.74-1.15-9.67-5.31-41.87-5.8-45.99-.79-6.66-1.9-13.28-2.9-20.09ZM336.2,679.88c-1.39,1.2-2.21,1.88-3.01,2.59-2.11,1.86-4.09,3.88-6.34,5.54-4.51,3.34-9.23,6.4-13.76,9.71-7.3,5.34-14.5,10.81-21.77,16.19-2.74,2.03-5.78,3.73-8.27,6.03-5.37,4.98-10.62,10.11-15.63,15.45-4.09,4.36-7.8,9.07-11.59,13.7-1.07,1.31-1.98,2.82-2.7,4.36-1.41,3.02-1.03,4.02,2.03,5.48,5.17,2.47,10.62,4.01,16.33,2.87,5.01-.99,10-2.3,14.81-4,6.69-2.37,12.82-5.95,18.92-9.61,7.92-4.75,15.35-10.08,21.89-16.56,3.55-3.52,7.05-7.2,9.89-11.29,2.03-2.92,4.95-8.67,4.95-8.67,0,0-3.34-17.08-4.2-21.89-.55-3.07-.97-6.17-1.55-9.89ZM461.05,426.84c-5.2.53-9.57,1.03-13.31,3.69-1.79,1.27-3.6,2.56-5.21,4.04-4.34,4-8.08,8.51-10.8,13.79-1.28,2.49-1.15,4.84.63,7.19,4.9,6.45,10.11,12.58,16.4,17.75,2.26,1.86,4.39,3.71,7.05.63.2-.23.73-.16,1.02-.35,2.1-1.42,4.41-2.64,6.22-4.37,2.9-2.77,5.47-5.9,8.2-8.86,2.74-2.96,4.73-6.39,6.71-9.89,2.18-3.84,1.96-7.43.11-11.19-3.67-7.4-9.78-11.23-17.02-12.44Z"/>
    <path class="st0" d="M129.08,406.39c-.48,2.92-.74,5.33-1.29,7.68-2.67,11.3-5.53,22.55-8.08,33.87-1.15,5.11-1.79,10.34-2.59,15.53-.66,4.34-1.54,8.69-1.72,13.06-.26,6.45-1.26,12.91.05,19.38.66,3.23.69,6.59,1.35,9.82,2.62,12.82,9.38,23.11,20.1,30.45,10.69,7.32,22.58,11.58,35.74,11.59,20.07.02,38.55-5.77,56.03-15.29,7.63-4.16,15.42-8.02,23.01-12.25,13.62-7.59,26.11-16.79,38.25-26.56,7.86-6.33,14.97-13.36,21.96-20.57,1.95-2.01,3.92-4.01,5.85-5.99-.97-3.53-2.96-6.26-5.67-7.87-7.16-4.25-13.21-6.99-25.22-6.51-4.61-.11-15.96,1.4-17.06,1.47-3.17.2-6.33.45-9.5.62-1.21.06-2.48.14-3.65-.1-3.22-.66-6.46-1.32-9.59-2.3-4.83-1.51-8.52-4.54-10.69-9.2-2.08-4.45-2.55-9.05-1.7-13.94.16-10.81,4.82-26.34,7.75-31.7,2.44-4.46,5.23-8.73,7.95-13.02.71-1.12,1.68-2.11,2.67-3.01,4.55-4.14,9.41-7.85,15.31-9.85,4.95-1.68,10.16-2.03,15.22-1.14,2.62.46,4.99,2.48,7.43,3.87,8.19,4.66,15.04,10.95,21.17,18,2.04,2.34,3.29,5.4,4.74,8.21,1.12,2.17,1.79,4.58,3.01,6.69,3.38,5.86,7.81,28.13,8.34,32.84,1.52,13.47-.38,26.54-5.67,39.06-2.86,6.77-6.58,13-10.71,19.15-5.83,8.66-12.98,15.92-20.63,22.76-7.38,6.61-14.86,13.21-22.9,18.98-9.13,6.55-18.88,12.25-28.46,18.15-6.14,3.78-12.36,7.5-18.77,10.79-5.21,2.67-10.67,4.91-16.18,6.89-5.04,1.82-10.29,3.03-15.78,4.61.06,5.9-3.42,11.16-5.1,16.97-2.92,10.11-5.71,20.22-7.56,30.59-1.36,7.6-2.93,15.17-2.61,22.91.29,6.96.44,14.01,1.73,20.82,1.24,6.58,3.77,12.89,9.42,17.38,7.41,5.89,16.1,1.39,20.06-4.27.65-.93.7-2.31.92-3.5.94-5.03,1.8-10.08,2.79-15.1.21-1.06.65-2.18,1.32-3,.63-.77,1.87-1.79,2.53-1.6.95.27,1.94,1.42,2.31,2.41.49,1.33.63,2.89.53,4.32-.29,4.26-.59,8.53-1.22,12.75-1.09,7.25-2.32,14.49-3.7,21.7-1.45,7.54-4.97,14.11-10.64,19.25-4.98,4.51-10.98,6.15-17.84,2.09-5.57-3.3-9.11-8.09-12.02-13.81-3.83-7.52-4.74-15.67-5.98-23.69-.98-6.33-1.86-12.8-.81-19.33.61-3.85.71-7.8.84-11.71.34-10.08,2.59-19.9,4.33-29.76,1.9-10.73,5.39-21.08,9.54-31.14,1.48-3.58,3.74-6.85,5.69-10.23.59-1.02,1.32-1.96,2.26-3.33-1.29,0-2.09-.1-2.86.01-9.85,1.43-19.62.87-29.02-2.25-5.29-1.75-10.29-4.5-15.22-7.17-8.94-4.86-15.56-12.29-20.67-20.86-4.33-7.26-7.5-15.12-8.48-23.69-.72-6.3-1.6-12.58-2.37-18.88-.19-1.57-.21-3.17-.31-4.75-.26-4.27-.75-8.54-.73-12.81.02-4.63.19-9.31.86-13.89,1.36-9.18,3.16-18.3,4.67-27.46,1.53-9.35,5.03-18.13,7.76-27.13,1.27-4.2,3.07-8.25,4.83-12.27,1.06-2.41,1.33-2.42,4.7-3.71ZM298.88,419.98c-2.24-4.9-2.54-5.51-5.01-7.23-3.82-2.66-7.71-5.2-11.6-7.76-6.12-4.02-12.68-2.87-18.63-.33-4.38,1.87-8.17,5.37-11.83,8.58-3.71,3.26-3.24,5.14,1.28,7.2,6.75,3.08,36.23,1.14,38.17.98,2.52-.2,5.19.4,7.61-1.45Z"/>
    <path class="st0" d="M827.47,696.49c-5.32,5.31-11.41,9.64-17.65,13.72-8.39,5.48-17,10.62-25.53,15.88-12.31,7.59-25.27,13.92-38.59,19.51-.95.4-2.2.59-3.16.33-10.79-2.87-21.32-6.38-30.93-12.25-6.56-4.01-11.98-9.22-16.78-15.2-4.92-6.14-9.73-12.31-12.43-19.8-1.07-2.97-2.09-6.16-2.69-9.11-.68-3.31-.71-5.68,1.57-8.01.51-.52.97-1.1,1.5-1.6,3.46-3.28,7.26-5.97,11.65-8.36,7.22-3.93,21.44-5.11,27.06-4.56,8.25.82,16.35-.02,24.42-1.59,8.99-1.74,16.34-7.01,24.11-11.32,8.76-4.86,13.51-13.34,18.28-21.55,3-5.15,5.24-10.8,7.26-16.43,2.26-6.32,4-12.83,5.71-19.33.77-2.93,1.04-6.02,1.31-9.06.14-1.61.62-3.92-1.54-4.38-2.07-.44-2.78,1.8-3.34,3.3-1.47,4.01-3.14,8.03-3.91,12.19-2.28,12.31-9,21.23-19.76,27.27-3.83,2.15-7.77,4.14-11.76,5.99-11.83,5.47-24.37,5.87-37.05,4.82-5.7-.47-11.21.32-16.7,1.62-2.02.48-4.17.86-5.94,1.85-5.21,2.9-10.38,5.8-14.61,10.24-6.31,6.63-12.2,13.41-14.4,22.61-.77,3.21-1.61,6.4-2.37,9.61-1.57,6.66-3.41,14.38-3.41,21.33,0,5.29,2.73,18.02,4.81,22.59,5.83,12.76,14.19,23.66,24.86,32.79.7.6,1.28,1.32,2.47,2.56-3.35,1.04-5.88,1.6-8.59,1.97-10.39,1.41-20.55-2.46-27.56-9.92-3.4-3.61-6.32-7.01-8.28-12.25-.99-2.22-1.63-4.84-2.09-6.94-2.33-10.61-4.63-21.23-6.6-31.92-1.72-9.31-13.98-125.06-17-156.43-5.07,3.49-10.1,6.93-15.19,10.44,1.61,10.58,2.31,21.27,3.38,31.92.86,8.51,1.54,17.03,2.32,25.54.95,10.34,1.91,20.67,2.91,31,.56,5.83,1.13,11.66,1.86,17.47,1.07,8.48,2.3,16.94,3.43,25.42.24,1.81.25,3.66.48,5.48.72,5.68,1.47,11.36,2.25,17.04.83,6.05,1.44,12.14,2.63,18.11,1.14,5.73,2.89,11.34,4.36,17.01,2.24,8.67,5.32,16.92,10.14,24.6,4.01,6.39,8.37,12.27,14.31,17.01,6.28,5.02,13.35,7.96,21.29,7.54,5.05-.26,10.16-.59,15.23-1.76,12.6-2.91,24.49-7.68,36.1-13.11,7.29-3.41,14.12-7.79,21.13-11.78,9.78-5.57,19.67-10.97,29.28-16.83,8.34-5.09,16.49-10.53,24.46-16.19,5.18-3.67,9.92-7.96,14.78-12.06,2.07-1.75,3.8-3.79,4.47-6.56,1.47-6.05,3.13-12.05,4.45-18.13.5-2.29.27-4.73.42-8.03-2.79,2.31-4.96,3.86-6.83,5.72Z"/>
    <path class="st0" d="M533.01,627.42c1.57,3.27-.11,5.68-.71,8.17-.28,1.17-1.12,2.22-1.32,3.39-.84,4.96-4.47,7.29-8.46,9.35-8.04,4.16-16.22,8.08-24.08,12.57-15.52,8.86-30.83,18.07-46.28,27.06-9.31,5.42-18.76,10.59-28.03,16.07-10.85,6.4-21.59,13-32.34,19.56-1.43.87-2.66,2.09-4.07,3.21,1.1,4.07,3.84,6.38,7.13,8.18,6.71,3.68,13.91,5.98,21.42,7.39,3.03.57,3.32.86,3.23,3.78-.06,2.04-.53,4.07-.94,6.09-.62,3.09-1.34,6.16-2.06,9.42-4.82.11-9.23-1.01-13.46-2.45-4.27-1.46-8.4-3.4-12.42-5.47-5.77-2.96-8.98-7.76-9.24-14.37-.29-7.49,0-14.92,1.74-22.26.74-3.09,2.17-5.67,4.37-7.91,3.29-3.35,7.17-5.88,11.2-8.2,12.52-7.19,25.04-14.37,37.58-21.51,15.85-9.02,31.73-17.98,47.59-26.97,12.57-7.12,25.33-13.87,38.32-20.2,2.31-1.12,4.48-2.52,6.79-3.64,1.23-.59,2.63-.85,4.03-1.28Z"/>
    <path class="st0" d="M754,594.76c-.77-.05-1.42.05-1.94-.15-5.45-2.15-10.91-4.29-16.3-6.58-2.81-1.19-5.42-2.86-8.23-4.04-5.29-2.22-8.14-6.44-8.88-11.75-1.16-8.33-.51-16.66,2.86-24.49,2.01-4.67,6.12-7.55,10.29-10.19,5.69-3.59,11.33-7.27,17.17-10.6,5.95-3.39,12.12-6.41,18.21-9.55,9.03-4.65,18.06-9.31,27.13-13.88,13.22-6.66,26.49-13.23,39.72-19.85,5.25-2.63,10.45-5.38,15.74-7.93,9.25-4.47,18.59-8.74,27.8-13.29,3.48-1.72,6.69-4.02,10.02-6.04.52-.32,1.04-.83,1.59-.89,1.27-.12,2.62-.2,3.81.16.29.09.27,1.99.01,2.95-.97,3.53-2.03,7.04-3.24,10.49-.28.79-1.21,1.44-1.98,1.96-.69.47-1.65.54-2.34,1.01-8.46,5.72-17.97,9.4-27,14.02-11.33,5.79-22.79,11.32-34.11,17.13-18.83,9.66-37.47,19.71-56.44,29.1-12.88,6.38-24.9,14.11-36.98,21.79-1.95,1.24-3.6,2.93-5.4,4.4-1.42,1.15-1.59,2.59-.41,3.83,1.5,1.57,3.11,3.18,4.97,4.22,7.79,4.37,15.9,8.11,24.4,10.89,1.91.62,2.7,1.5,2.56,3.32-.16,1.94-.32,3.89-.75,5.78-.62,2.71-1.48,5.36-2.28,8.19Z"/>
    <path class="st0" d="M483.68,204.25c1.92,1.01,2.76,2.75,2.69,4.8-.14,4.02-.33,8.05-.79,12.04-.56,4.85-1.39,9.68-2.13,14.51-1.06,6.99-3.66,13.43-7.11,19.55-.41.73-.94,1.45-1.57,2-4.39,3.85-10.01,4.5-14.86,1.21-3-2.03-5.81-4.53-8.2-7.25-5.74-6.52-8.68-14.25-9.68-22.92-1.3-11.36-1.13-22.68.04-34,.81-7.9,1.78-15.79,2.97-23.64,1.42-9.3,3.26-18.53,4.71-27.82.81-5.18,1.01-10.47,2.73-15.49,2.33-6.81,3.93-13.88,7.36-20.28.65-1.2,1.06-3.25,2.93-2.69,2,.6,1.48,2.62,1.18,4.11-1.69,8.49-3.57,16.94-5.22,25.43-2.61,13.44-5.15,26.9-7.59,40.37-.5,2.75-.28,5.62-.68,8.39-1.19,8.16-1.59,16.36-.56,24.53,1.19,9.4,6.01,16.69,14.25,21.53,5.69,3.35,13.58-.28,14.29-6.89.47-4.36,1.19-8.7,1.95-13.02.45-2.6.93-3.05,3.28-4.46Z"/>
    <path class="st0" d="M843.48,521.2c-.16,1.36-.09,2.79-.53,4.06-4.91,14.32-7.63,29.04-8.23,44.15-.5,12.65.31,25.18,3.78,37.42,1.21,4.27,3.19,8.12,6.59,11.24,3.78,3.46,8.13,4.8,13.11,4.55,4.62-.24,7.55-3.16,8.2-7.75.61-4.35,1.41-8.67,2.38-12.95.28-1.26,1.4-2.34,2.26-3.71,2.61,2.34,3.4,4.81,3.06,7.6-.63,5.09-1.4,10.16-2.1,15.24-.42,3.03-.75,6.06-1.23,9.08-.97,6.22-2.92,12.07-6.45,17.38-2.99,4.49-7.16,5.95-12.3,5.54-7.36-.59-12.32-4.83-16.14-10.66-5.02-7.66-6.97-16.36-8.14-25.27-.78-5.94-1.65-11.88-1.99-17.85-.31-5.47-.07-10.99.1-16.48.1-3.29.57-6.57.78-9.86.87-14,3.95-27.55,8.48-40.78,1.06-3.08,2.83-5.94,4.48-8.79.62-1.07,1.83-1.81,2.77-2.7.37.18.74.36,1.11.54Z"/>
    <path class="st0" d="M539.2,899.34c-.19-6.41.67-12.01,3.05-17.09,1.02-2.18,3.73-3.84,6.02-5.12,4.57-2.54,9.4-4.63,14.1-6.94,6.7-3.29,13.48-6.42,20.05-9.96,10.45-5.62,20.74-11.52,31.11-17.29,6.2-3.45,12.56-6.64,18.58-10.37,9.87-6.12,20.08-11.74,29.22-19,2.58-2.05,5.47-3.7,8.26-5.47.58-.37,1.32-.49,2.22-.81,1.09,2.43-.06,4.52-.52,6.51-.74,3.2-1.85,6.33-3,9.41-.4,1.07-1.23,2.17-2.17,2.81-7.75,5.36-15.41,10.86-23.41,15.82-7.69,4.77-15.74,8.94-23.63,13.38-2.77,1.56-5.6,3.03-8.29,4.72-11.19,7.06-22.7,13.55-34.53,19.47-6.35,3.17-12.75,6.24-19.02,9.56-4.86,2.57-9.55,5.46-14.31,8.21-1.03.59-2.06,1.2-3.72,2.16Z"/>
    <path class="st0" d="M652.34,128.51c1.51,1.6.94,3.08.52,4.42-1.75,5.59-3.65,11.14-5.39,16.74-2.17,7.01-3.98,14.09-4.72,21.44-.55,5.46-1.92,10.86-2.19,16.33-.45,9.15-.87,18.37-.23,27.48.46,6.68,2.7,13.18,8.22,17.88,4.31,3.67,8.74,3.66,12.67-.39.85-.88,1.43-2.24,1.66-3.47.8-4.31,1.36-8.66,2.08-12.99.18-1.07.47-2.2,1.02-3.11.45-.74,1.41-1.7,2.07-1.65.72.06,1.78,1.07,1.95,1.83.47,2,.92,4.13.69,6.13-1.27,11.03-2.32,22.12-5.77,32.76-1.34,4.11-3.22,7.8-6.9,10.54-4.82,3.59-9.2,3.01-12.89-.34-6.34-5.74-9.69-13.09-11.73-21.17-1.35-5.36-1.68-10.84-1.65-16.36.02-2.43-.56-4.85-.66-7.29-.12-3.03-.2-6.08,0-9.1,1.05-15.49,2.5-30.96,6.25-46.05,2.5-10.06,5.3-20.12,10.69-29.16,1.05-1.76,2.05-3.61,4.31-4.49Z"/>
    <path class="st0" d="M135.25,347.64c.3-1.04.53-2.1.9-3.11,1.13-3.09,2.19-6.21,3.5-9.22,1.75-4.03,3.57-8.04,5.62-11.92,1.45-2.74,2.88-3.03,5.79-1.71,6,2.73,11.98,5.51,17.98,8.25,3.32,1.52,6.72,2.88,9.99,4.5,2.83,1.4,5.54,3.04,8.27,4.63,1.73,1.02,2.1,2.14,1.48,4.01-.08.23-.16.48-.3.67-5.16,7.1-7.25,15.69-11.33,23.3-.29.54-.59,1.07-.94,1.58-1.55,2.27-2.51,2.26-4.79.75-3.24-2.14-6.53-4.25-10.02-5.92-7.48-3.58-15.08-6.89-22.66-10.25-2.45-1.09-3.55-2.86-3.5-5.56Z"/>
    <path class="st0" d="M412.99,849.87c1.83.74,3.24,1.18,4.51,1.86,10.01,5.37,20,10.78,30,16.19,2.85,1.54,3.44,2.87,2.63,6.01-.21.82-.55,1.62-.93,2.38-3.51,6.99-7.04,13.98-10.58,20.95-.44.87-.94,1.73-1.54,2.49-1.46,1.83-2.36,2.1-4.42,1.04-4.22-2.18-8.37-4.5-12.55-6.76-3.53-1.91-7.1-3.76-10.6-5.74-1.8-1.02-3.43-2.32-5.2-3.4-1.98-1.2-4.02-2.3-6.44-3.67,4.3-10.6,11.22-20.02,15.11-31.36Z"/>
    <path class="st0" d="M504.08,860.82c-4.96,10.4-8.68,20.9-14.47,30.82-3.61-1.25-6.93-2.54-9.87-4.42-8.06-5.14-16.21-10.07-25.18-13.47-1.26-.48-1.82-1.32-1.83-2.43-.02-1.56-.13-3.29.47-4.66,3.13-7.16,6.47-14.24,9.76-21.33.36-.77.82-1.51,1.34-2.18,1.54-1.98,2.33-2.31,4.67-1.31,7.19,3.09,14.23,6.45,20.75,10.88,3.73,2.54,7.84,4.5,11.78,6.71.73.41,1.48.8,2.58,1.39Z"/>
    <path class="st0" d="M250.01,574c1.97,1.05,3.37,1.79,4.76,2.55,9.85,5.41,19.72,10.78,29.54,16.25,3.7,2.06,4.19,3.79,2.16,7.5-3.7,6.76-7.51,13.45-11.31,20.16-.48.84-1.11,1.62-1.77,2.33-1.55,1.67-2.88,1.94-4.88.9-1.08-.56-2.08-1.29-3.08-1.98-3.94-2.7-8.05-5.02-12.45-6.96-5.57-2.46-10.83-5.61-16.23-8.46-1.17-.62-1.55-1.53-.98-2.74.57-1.22,1.24-2.39,1.81-3.61,3.39-7.32,6.74-14.66,10.15-21.98.6-1.28,1.42-2.47,2.29-3.95Z"/>
    <path class="st0" d="M157.47,399.03c.26-.93.4-1.91.79-2.78,2.92-6.57,5.87-13.12,8.85-19.67.4-.88.92-1.73,1.53-2.48,1.22-1.51,2.67-1.84,4.55-1.01,10.82,4.78,21.68,9.48,32.52,14.24,2.53,1.11,3.19,2.75,2.3,5.33-.12.34-.26.7-.46,1-4.14,6.12-6.3,13.18-9.35,19.81-.2.44-.4.89-.63,1.32-2.32,4.29-2.87,4.42-7.38,2.41-9.56-4.26-19.13-8.51-28.76-12.63-2.56-1.1-4.09-2.58-3.95-5.54Z"/>
    <path class="st0" d="M447.19,556.98c2.29,1.28,4.16,2.37,6.08,3.38,8.19,4.32,16.41,8.61,24.6,12.94,1.27.67,2.55,1.39,3.67,2.28,2.11,1.66,2.7,3.67,1.65,6.11-.81,1.9-1.78,3.78-2.98,5.46-2.77,3.87-3.31,8.62-5.29,12.78-1.15,2.41-2.3,4.81-3.46,7.24-2.18-.26-3.53-1.25-5.05-2.31-3.69-2.57-7.48-5.21-11.6-6.89-3.78-1.54-7.13-3.65-10.56-5.69-1.88-1.12-3.66-2.44-5.6-3.44-3.28-1.68-4.42-3.73-3.11-7.11,2.6-6.7,5.34-13.35,8.21-19.94.74-1.7,2.19-3.1,3.44-4.82Z"/>
    <path class="st0" d="M289.84,674.93c-2.84-1.72-5.05-3.2-7.38-4.46-7.42-4.02-14.82-8.07-22.35-11.89-2.68-1.36-3.77-3.67-1.92-7.49,3.36-6.92,7.28-13.55,11.02-20.28.47-.84,1.2-1.54,1.88-2.24,1.36-1.39,2.65-1.55,4.54-.51,9.1,5,18.31,9.81,27.49,14.66,2.21,1.17,2.88,2.51,1.93,4.78-.7,1.68-1.58,3.34-2.64,4.82-2.44,3.41-4.25,7.1-5.82,10.98-1.37,3.38-3.26,6.55-5.02,9.76-.44.8-1.27,1.38-1.73,1.86Z"/>
    <path class="st0" d="M697.92,611.12c-7.7-4-14.82-7.78-22.01-11.39-3.7-1.86-7.59-3.35-11.32-5.14-2.88-1.38-3.93-3.72-2.93-6.64,2.13-6.23,4.4-12.41,6.62-18.6.21-.57.48-1.13.77-1.66,1.81-3.31,2.59-3.42,6-1.64,3.13,1.63,6.43,2.95,9.61,4.5,4.83,2.35,9.63,4.78,14.44,7.19,3.05,1.53,6.05,3.19,9.15,4.61,1.74.8,1.97,2.04,1.55,3.59-.25.94-.6,1.89-1.11,2.71-3.77,6.05-6.35,12.64-8.95,19.23-.43,1.1-1.16,2.08-1.82,3.24Z"/>
    <path class="st0" d="M519.66,595.99c-6.21-3.31-11.74-6.16-17.18-9.19-2.43-1.35-4.63-3.11-6.98-4.61-2.35-1.5-4.49-3.32-7.39-3.9-.75-.15-1.7-1.49-1.77-2.36-.14-1.52-.03-3.27.6-4.63,2.77-5.98,5.76-11.86,8.68-17.78.27-.55.59-1.07.93-1.58,2.25-3.34,3.11-3.64,6.58-1.74,3.21,1.76,6.27,3.8,9.45,5.61,5.2,2.96,10.45,5.84,15.66,8.77,1.06.6,2.1,1.24,3.12,1.92,3.35,2.24,3.49,2.97,1.34,6.49-.06.1-.13.21-.2.31-3.88,4.95-6.26,10.71-8.97,16.3-1.09,2.26-2.6,4.32-3.87,6.38Z"/>
    <path class="st0" d="M754.66,209.98c-1.02-.95-1.65-1.65-2.39-2.21-3.11-2.35-6.24-4.69-9.42-6.95-.67-.47-1.59-.66-2.42-.81-3.78-.71-6.19,1.17-6.49,5.01-.35,4.49,1.1,8.68,2.1,12.96,3.07,13.23,6.17,26.51,5.34,40.19-.31,5.17-2.04,10.25-3.14,15.36-.03.15-.39.23-.83.49-2.69-5.28-5.19-10.65-8.11-15.79-2.94-5.19-6.3-10.15-9.38-15.06-3.33,0-6.14.18-8.93-.04-6.19-.48-8.69-2.37-10.11-8.28-1.1-4.58-.82-9.25,1.37-13.59,1.35-2.68,2.84-3.04,5.28-1.49,8.2,5.24,14.59,12.21,19.54,20.53,2.81,4.73,5.48,9.54,8.24,14.3.35.6.81,1.12,1.66,2.29.15-1.43.29-2.18.3-2.93.15-7.15-1.25-14.1-2.85-21.01-1.38-5.95-3.39-11.79-4.3-17.8-.99-6.53-.85-13.18,1.65-19.53,1.62-4.1,4.97-5.49,8.94-5.86.92-.09,2.08.12,2.81.64,3.96,2.83,7.85,5.76,11.7,8.75,2.25,1.75,2.54,4.02,1.33,6.56-.61,1.29-1.16,2.6-1.9,4.27Z"/>
    <path class="st0" d="M184.56,418.5c-2.72,11.88-7.33,31.08-8.69,48.62-.34,4.36-.03,8.75.02,13.13.06,5.66,2.52,9.23,7.73,11.24,3.42,1.33,6.46.7,9.1-1.88,2.53-2.47,4.31-5.13,3.99-9-.21-2.52.38-5.11.7-7.65.12-.96.25-2.06.79-2.79.58-.78,1.61-1.56,2.52-1.66.56-.06,1.65,1.05,1.82,1.8.52,2.25,1,4.58.96,6.87-.05,3.26-.08,6.67-1.01,9.75-1.75,5.8-3.41,11.68-6.55,16.97-2.8,4.73-10.27,9.39-16.7,6.21-5.77-2.86-10.39-6.74-11.31-13.73-1.22-9.29-1.27-18.55.18-27.8,1.78-9.82,5.31-29.33,9.11-40.25.55-2.13,1.15-4.24,1.83-6.33.99-3.03,2.28-3.85,5.51-3.49Z"/>
    <path class="st0" d="M642.51,347.23c-.23-1.27-.61-2.47-.62-3.66,0-1.28.17-2.61.58-3.82.79-2.3,1.75-4.54,2.74-6.76,1.58-3.56,3.07-7.18,4.89-10.61,1.58-2.96,2.66-2.8,5.54-1.07,5.22,3.14,10.59,6.04,15.99,8.86,3.45,1.81,7.07,3.3,10.62,4.93,2.26,1.04,2.77,1.72,2.49,4.26-.16,1.42-.57,2.88-1.17,4.18-2.45,5.32-4.96,10.62-7.55,15.88-1.6,3.24-3.68,3.99-6.88,2.28-7.53-4.02-14.97-8.22-22.45-12.33-1.28-.7-2.6-1.34-4.17-2.14Z"/>
    <path class="st0" d="M807.17,356.01c.63-3.34,1.15-6.69,1.91-10,1.42-6.19,2.83-12.38,4.5-18.5,1.33-4.87,4.38-8.72,8.24-11.87,3.2-2.61,6.05-2.78,9.3-.24,2.87,2.24,5.43,4.87,8.04,7.41,1.89,1.83,2.09,4.08,1.12,6.44-.63,1.53-1.39,3.01-2.41,5.19-1.55-1.71-2.62-2.96-3.76-4.14-1.7-1.75-3.33-3.59-5.2-5.15-2.05-1.72-4.23-1.63-6.36-.02-3.42,2.6-5.75,5.99-6.79,10.17-2.51,10.09-4.61,20.25-5.43,30.64-.21,2.61-.51,5.33-1.98,7.61-1.86.21-2.03-1.13-2.49-2.24-2.83-6.76-5.59-13.56-8.57-20.25-1.18-2.64-2.88-5.05-4.33-7.56-3.66.73-6.9.76-10.08-.5-2.29-.91-4.06-2.3-4.71-4.76-1.41-5.36-2.39-10.76.27-16.02,1.32-2.6,1.75-2.47,4.14-.91,10.34,6.71,16.12,16.8,20.81,27.73,1.01,2.35,2,4.7,3,7.05.25-.03.51-.07.76-.1Z"/>
    <path class="st0" d="M432.24,628.13c2.48-.49,2.93,1.27,3.06,2.77.28,3.16.61,6.39.26,9.52-.68,6.05-1.48,12.11-4.73,17.55-1.58,2.65-3.63,4.82-6.3,5.92-4.95,2.04-7.22,1.49-10.81-2.47-3.15-3.47-5.18-7.62-6.19-12.29-2.41-11.15-.94-22.15,1.15-33.1.94-4.92,2.17-9.79,3.51-14.62.71-2.57,1.81-5.06,3.02-7.44.59-1.16,1.86-1.98,2.82-2.95.25.14.51.27.76.41-.13,1.53-.11,3.09-.43,4.58-1.37,6.32-2.68,12.66-4.32,18.92-1.57,6.01-1.58,12.07-1.29,18.18.2,4.41,2.13,8.03,5.19,11.01,4.05,3.94,7.74,3.56,10.33-2.01,1.72-3.71,2.39-7.91,3.51-11.89.19-.68.31-1.38.46-2.09Z"/>
    <path class="st0" d="M332.33,489.59c-.5,2.22-.69,3.91-1.27,5.44-2.47,6.53-4.34,13.19-5.31,20.12-.44,3.13-1.55,6.16-2.15,9.28-.84,4.36-.99,8.66.83,12.93,1.85,4.36,5.34,6.52,9.5,8,1.4.5,2.52.03,3.64-.99,3.21-2.92,4.34-6.68,4.67-10.81.08-.97-.02-1.99.22-2.92.35-1.32,1.42-2.21,2.73-1.8.63.2,1.28,1.43,1.31,2.21.19,4.77.11,9.5-1.87,14.05-1.46,3.34-2.45,6.88-3.79,10.28-.66,1.68-1.47,3.35-2.53,4.81-2.79,3.85-4.94,4.04-9.47,2.38-7.31-2.68-9.89-8.31-11.03-15.4-1.67-10.42.68-20.43,2.55-30.5.56-3,1.04-6.04,1.97-8.93.89-2.75,2.34-5.32,3.52-7.98.94-2.11,1.81-4.25,2.75-6.36.62-1.4.93-3.07,3.72-3.82Z"/>
    <path class="st0" d="M400.79,247.67c-.77,3.77-1.56,7.72-2.4,11.65-.38,1.79-.93,3.55-1.33,5.34-.93,4.18-3.87,6.74-7.3,8.76-2.08,1.22-4.26.52-6.23-.73-4.91-3.1-7.2-7.85-8.31-13.29-1.16-5.69-1.18-11.47-.48-17.18.92-7.51,2.07-15.02,4.81-22.16.57-1.48,1.19-2.95,1.91-4.36.38-.74.92-1.51,1.6-1.96.62-.41,1.58-.67,2.25-.49.4.11.87,1.26.75,1.83-.57,2.73-1.08,5.51-2.05,8.12-2.82,7.57-4.44,15.25-2.97,23.33.72,3.94,2.97,6.88,6.2,9.17,1.14.81,2.3.94,3.41.17,2.2-1.53,4.47-2.98,4.72-6.14.18-2.3.64-4.6,1.24-6.84.19-.73,1.2-1.25,1.83-1.87.52.6,1.31,1.11,1.51,1.8.44,1.51.57,3.11.86,4.85Z"/>
    <path class="st0" d="M341.53,832.51c2.02.1,2.36,1.56,2.55,2.83.24,1.56.39,3.23.08,4.75-1.29,6.39-3.17,12.55-7.25,17.85-2.41,3.13-5.22,5.08-9.36,4.44-4.3-.67-7.16-3.32-8.62-7.13-1.07-2.78-1.58-5.89-1.78-8.89-.75-11.47,1.53-22.34,6.71-32.65,2.69-5.35,5.02-10.88,7.57-16.3.59-1.26,1.18-3.17,3.07-2.3,1.64.76,1.11,2.58.69,3.95-.54,1.75-1.31,3.43-2.04,5.11-2.58,5.94-5.63,11.72-7.66,17.85-2.1,6.34-3.75,12.99-.81,19.67,1.2,2.74,5.8,5.93,8.33,5.75,3.05-.22,6.12-3.43,6.85-7.27.37-1.92.55-3.88.91-5.8.12-.66.52-1.27.76-1.85Z"/>
    <path class="st0" d="M388.22,366.11c.22-.81.29-1.7.67-2.42,2.94-5.63,5.93-11.23,8.94-16.82.46-.86,1.01-1.69,1.64-2.42,2.06-2.41,3.28-2.44,5.85-.64,2.09,1.47,4.27,2.86,6.53,4.05,6.16,3.23,12.39,6.31,18.58,9.49,1.51.78,2.99,1.63,4.43,2.53,1.7,1.06,2.24,3.74,1.17,6.31-.7,1.69-1.7,3.25-2.52,4.88-1.93,3.81-3.81,7.65-5.77,11.46-.56,1.08-1.23,2.12-1.94,3.11-2.44,3.36-3.16,3.42-6.71,1.08-1.53-1.01-3.18-1.82-4.78-2.71-7.78-4.34-15.56-8.69-23.36-12.99-1.96-1.08-2.73-2.7-2.72-4.89Z"/>
  </g>
  <path class="st0" d="M636.03,527.32c2.2-8.67-5.11-19.1-15.8-19.4-14.36-.39-21.77,10.64-17.65,22.07-33.04.96-29.62,42.88,3.22,40.09,1.77,4.55,4.29,7.58,8.3,10.77-6.7,4.62,2.32,4.13,3.1,6.52l3.56,31.82,16.42-1.31-3.71-31.81c.28-2.47,9.42-3.55,1.7-6.9,3.1-3.58,5.56-6.98,5.75-11.67.53-.76,3.73-.64,5.08-.94,29.01-6.33,19.35-44.14-9.96-39.24ZM591.96,556.77c-8.47-10.3,5.69-22.89,17.13-15.25,1.85,1.23,3.76,3.72,4.32,5.68,3.36,11.76-13.76,18.92-21.45,9.57ZM624.29,527.27c-5.81,6.64-16.89-1.94-10.53-7.89,6.08-5.7,15.64,2.05,10.53,7.89ZM629.06,548.36c-2.1-13.24,20.32-17.1,24.01-4.34,4.36,15.08-21.63,19.31-24.01,4.34Z"/>
  <path class="st0" d="M627.06,710.44l-.9-7.36-25.54,3.13,1.62,13.26,15.96-1.95c1.11-.14,2.01,7.23.9,7.36l-15.96,1.95,1.74,14.24,15.96-1.95c1.11-.14,2.01,7.23.9,7.36l-15.96,1.95,1.62,13.26,24.81-3.04c1.45-.18-.5-5.88.11-7.02.48-.91,6.31-2.66,6.9-1.97l-7.45-39.79-4.71.58Z"/>
</svg>